<?xml version="1.0" standalone="no"?>
<!DOCTYPE svg PUBLIC "-//W3C//DTD SVG 20010904//EN"
 "http://www.w3.org/TR/2001/REC-SVG-20010904/DTD/svg10.dtd">
<svg version="1.0" xmlns="http://www.w3.org/2000/svg"
 width="396.000000pt" height="396.000000pt" viewBox="0 0 396.000000 396.000000"
 preserveAspectRatio="xMidYMid meet">
<metadata>
Created by potrace 1.15, written by Peter Selinger 2001-2017
</metadata>
<g transform="translate(0.000000,396.000000) scale(0.100000,-0.100000)"
fill="#000000" stroke="none">
<path d="M1950 3785 c-10 -26 -15 -79 -15 -155 0 -111 1 -118 39 -205 67 -158
98 -263 103 -357 5 -81 4 -90 -25 -153 -18 -36 -42 -81 -54 -98 l-23 -32 49
35 c109 78 168 174 174 282 5 86 -10 133 -108 329 -84 166 -107 231 -118 331
l-8 63 -14 -40z m135 -413 c20 -45 37 -95 38 -111 1 -16 5 -27 8 -25 10 6 21
-25 24 -68 2 -22 -6 -60 -21 -95 -20 -49 -31 -62 -25 -29 6 30 -27 177 -60
271 -36 99 -44 139 -40 185 2 23 36 -34 76 -128z"/>
<path d="M1579 3389 c106 -130 147 -255 138 -414 -8 -132 -33 -224 -131 -490
-92 -245 -109 -304 -127 -420 -12 -84 -6 -215 12 -262 18 -49 -12 -8 -96 131
-75 123 -115 219 -115 274 0 15 -4 22 -9 17 -12 -14 -97 -276 -116 -360 -23
-100 -30 -266 -16 -364 19 -129 82 -297 143 -384 11 -16 18 -30 15 -33 -5 -6
-143 168 -222 280 l-49 69 -9 -29 c-12 -43 0 -187 24 -284 49 -193 140 -352
279 -490 194 -191 376 -292 580 -321 87 -12 255 -5 230 11 -31 19 61 108 156
151 138 63 240 146 351 285 36 46 68 84 70 84 8 0 -54 -112 -106 -189 -99
-149 -193 -229 -336 -289 -44 -18 -66 -31 -50 -27 174 38 413 217 538 402 110
165 151 290 150 463 0 135 -16 225 -79 450 -39 138 -47 184 -51 280 -5 103 -3
122 19 188 l25 73 -30 -28 c-102 -96 -157 -290 -157 -557 0 -99 -22 -195 -57
-247 -18 -26 -18 -23 -18 125 -1 173 -9 202 -115 416 -62 126 -93 201 -110
269 -18 70 -14 197 9 271 23 74 99 202 163 275 23 27 36 45 28 40 -36 -21
-262 -219 -311 -273 -58 -62 -125 -180 -154 -272 -10 -30 -21 -59 -25 -63 -10
-11 -63 110 -97 218 -27 89 -27 92 -28 385 -1 181 -5 307 -12 325 -41 117
-143 233 -296 337 l-60 41 52 -64z m175 -1064 c22 -106 52 -178 117 -276 61
-89 252 -299 263 -288 4 3 2 45 -3 91 -14 121 15 311 33 217 10 -56 53 -137
113 -217 57 -76 106 -177 119 -246 l7 -39 -29 20 c-59 42 -234 101 -234 80 0
-4 24 -18 54 -32 76 -36 147 -103 186 -176 32 -61 33 -63 22 -123 -7 -34 -21
-80 -32 -103 -25 -51 -26 -92 -3 -108 16 -12 16 -16 3 -41 -8 -15 -45 -49 -81
-76 -37 -26 -74 -59 -83 -74 -16 -24 -16 -27 6 -72 35 -72 31 -178 -9 -263
-58 -122 -234 -280 -312 -279 -35 1 -35 1 31 36 88 45 214 168 252 246 36 75
45 162 22 223 -10 24 -40 75 -67 112 -27 37 -49 73 -49 79 0 6 14 39 32 73 23
45 37 61 52 61 20 1 20 1 -3 20 -30 26 -33 25 -72 -7 -18 -16 -46 -32 -63 -38
-22 -8 -37 -24 -58 -67 -16 -33 -39 -63 -54 -71 l-26 -14 33 -13 c19 -8 42
-25 52 -37 10 -13 25 -23 32 -23 8 0 19 -9 25 -20 13 -24 -2 -81 -26 -100 -11
-10 -14 -8 -14 12 0 36 -54 111 -97 135 -21 12 -85 42 -143 68 -135 61 -158
78 -186 139 l-23 51 -6 -32 -7 -32 -22 27 c-49 60 -68 103 -73 166 -6 65 13
144 44 194 8 13 12 26 9 29 -19 19 -121 -127 -140 -198 l-13 -54 -22 68 c-38
122 -50 242 -35 350 l7 47 27 -43 c65 -102 239 -207 388 -232 l42 -7 -11 31
c-6 16 -9 40 -7 52 2 19 8 15 35 -29 25 -40 38 -52 57 -52 14 0 27 4 30 8 3 5
-13 33 -34 63 -55 78 -103 171 -135 264 -36 106 -45 266 -21 375 18 79 77 241
82 225 2 -6 10 -41 18 -80z m726 -910 c73 -151 62 -314 -30 -418 -39 -45 -52
-42 -17 5 81 108 83 277 5 437 -18 36 -34 71 -36 76 -3 6 7 -1 22 -15 15 -13
40 -51 56 -85z m260 -81 c27 -90 27 -225 -1 -342 l-21 -88 -54 -10 c-33 -6
-54 -6 -54 -1 0 30 89 296 116 349 8 16 14 32 11 34 -2 2 -22 -9 -44 -25 -40
-29 -41 -29 -46 -9 -4 13 8 46 31 89 20 38 38 69 39 69 1 0 11 -30 23 -66z
m-1307 -184 c55 -135 179 -268 344 -369 100 -61 131 -93 148 -151 4 -16 -4 -8
-23 21 -25 39 -45 54 -127 95 -119 59 -214 137 -282 232 -63 88 -93 164 -98
251 -4 58 -3 61 5 24 5 -23 20 -69 33 -103z m338 -213 c105 -50 141 -86 171
-172 28 -80 23 -85 -33 -33 -30 28 -72 55 -105 68 -31 11 -72 32 -92 46 -20
15 -28 23 -17 19 38 -14 102 -18 109 -7 8 13 -39 44 -134 90 -74 35 -92 48
-108 79 -19 34 -16 34 52 -7 35 -21 106 -59 157 -83z m-237 -359 c74 -29 106
-47 163 -90 51 -39 132 -142 120 -154 -10 -10 -136 55 -160 82 -12 14 -49 45
-83 70 -66 49 -144 134 -108 120 10 -5 41 -17 68 -28z"/>
</g>
</svg>
